<svg id="Camada_1" data-name="Camada 1" xmlns="http://www.w3.org/2000/svg" viewBox="0 0 176 256"><defs><style>.cls-1{fill:#f4b400;fill-rule:evenodd;}.cls-2{fill:#db4437;}</style></defs><path class="cls-1" d="M10.55,223.1a4.95,4.95,0,1,0-9.89.07l.11,14a4.95,4.95,0,0,0,9.89-.08Z"/><path class="cls-1" d="M31.53,222.94a4.95,4.95,0,1,0-9.89.08l.21,28a4.95,4.95,0,0,0,9.89-.08Z"/><path class="cls-1" d="M52.51,222.79a4.95,4.95,0,0,0-9.89.07l.1,14a4.95,4.95,0,1,0,9.89-.07Z"/><path class="cls-2" d="M114.76,188.68H61l-8,24.36H0L59,51.82c28.92-68.81,28.92-68.73,58.29,0L176,213H122.73ZM87.89,105.79,73.31,150.65h29.15Z"/><path class="cls-1" d="M133.68,223.18a4.95,4.95,0,0,0-9.89.07l.1,14a4.95,4.95,0,0,0,9.89-.08Z"/><path class="cls-1" d="M154.66,223a4.95,4.95,0,0,0-9.89.07l.21,28a4.95,4.95,0,1,0,9.89-.07Z"/><path class="cls-1" d="M175.63,222.86a4.94,4.94,0,0,0-9.88.08l.1,14a4.95,4.95,0,1,0,9.89-.07Z"/></svg>