<svg id="Camada_1" data-name="Camada 1" xmlns="http://www.w3.org/2000/svg" viewBox="0 0 1102 256"><defs><style>.cls-1,.cls-3{fill:#f4b400;}.cls-1{fill-rule:evenodd;}.cls-2{fill:#db4437;}</style></defs><path class="cls-1" d="M215.49,223.09a4.94,4.94,0,1,0-9.88.08l.1,14a4.95,4.95,0,1,0,9.89-.07Z"/><path class="cls-1" d="M236.47,222.94a4.95,4.95,0,0,0-9.89.07l.21,28a4.95,4.95,0,1,0,9.89-.07Z"/><path class="cls-1" d="M257.45,222.78a4.95,4.95,0,1,0-9.89.08l.11,14a4.94,4.94,0,1,0,9.88-.07Z"/><path class="cls-2" d="M319.7,188.68H266L258,213H204.93l59-161.22c28.92-68.82,28.92-68.73,58.29,0L381,213H327.67Zm-26.87-82.89-14.58,44.86H307.4Z"/><path class="cls-2" d="M422.61,50.23c42.58,0,71.5,25.5,78.11,63.53H447.43c-4.78-10.71-14.35-16.85-25.73-16.85-17.08,0-27.56,13.89-27.56,35.29s10.48,35.3,27.56,35.3c11.38,0,20.95-6.15,25.73-16.85h53.29c-6.61,38-35.53,63.53-78.11,63.53-49.41,0-79.7-33.93-79.7-82S373.2,50.23,422.61,50.23Z"/><path class="cls-2" d="M591,92.13H534.05v19.81H591v38H534.05v22.77H591V213H483.5V51.82H591Z"/><path class="cls-3" d="M653.43,51.82v123h48.73V213H602.88V51.82Z"/><path class="cls-3" d="M1040.51,214.64c-36.89,0-65.81-17.08-68.09-53.29h53.74c.91,11.84,7.29,13.89,12.3,13.89s9.79-2.28,9.79-8c-.23-21.86-76.29-13.89-75.37-69,0-32.33,27.32-49.18,61.71-49.18,38.94,0,64,18.67,65.35,52.14h-54.42c-.46-9.79-5.69-12.75-11.16-12.75-4.1,0-7.29,2.74-7.29,8.2,0,20.27,74.92,16.85,74.92,66.49C1102,192.77,1079.45,214.64,1040.51,214.64Z"/><path class="cls-2" d="M128.92,153.26a37,37,0,0,0-5-11.77A27.13,27.13,0,0,0,128.92,153.26Z"/><path class="cls-2" d="M99.52,164.08a27.27,27.27,0,0,0,24-23.17C105.27,114,55.12,113.26,55.12,96.68c0-5.46,3.18-8.2,7.29-8.2,5.46,0,10.7,3,11.15,12.75H128c-1.37-33.47-26.42-52.14-65.36-52.14C28.25,49.09.92,65.94.92,98.27c-.91,55.11,75.15,47.14,75.38,69,0,5.69-4.79,8-9.8,8s-11.38-2.05-12.29-13.89H.47c2.28,36.21,31.19,53.29,68.08,53.29,26.8,0,45.83-10.36,55.1-26.46A27.29,27.29,0,0,0,99.52,164.08Z"/><path class="cls-2" d="M123.66,188.15a47.12,47.12,0,0,0,5-13A27.16,27.16,0,0,0,123.66,188.15Z"/><path class="cls-1" d="M338.62,223.17a4.95,4.95,0,0,0-9.89.08l.1,14a4.95,4.95,0,1,0,9.89-.07Z"/><path class="cls-1" d="M359.6,223a4.95,4.95,0,0,0-9.89.07l.21,28a4.95,4.95,0,1,0,9.89-.07Z"/><path class="cls-1" d="M380.57,222.86a4.94,4.94,0,1,0-9.88.07l.1,14a4.95,4.95,0,0,0,9.89-.07Z"/><path class="cls-2" d="M194.24,51.82H123.65V140a27.31,27.31,0,0,0,24.13,24.13,27.3,27.3,0,0,0-24.13,24.13V213H174.2V161.81h20c40.53,0,61.26-24.82,61.26-54.65C255.5,74.59,234.77,51.82,194.24,51.82ZM188.55,122H174.2V92.35h14.35c11.38,0,15.71,5.92,15.71,14.81S199.93,122,188.55,122Z"/><path class="cls-3" d="M846,178.46a20.06,20.06,0,0,0,2.58,7.08Z"/><path class="cls-3" d="M828,195.22a20.15,20.15,0,0,0,17.76-17.4l-45.92-126H741.55L682.57,213h53.06l8-24.36h53.74l8,24.36h40.52A20.17,20.17,0,0,0,828,195.22Zm-72.1-44.57,14.57-44.86L785,150.65Z"/><path class="cls-3" d="M845.83,213h12.76l-5-13.75A20.14,20.14,0,0,0,845.83,213Z"/><path class="cls-3" d="M953.76,130.38c15.94-4.1,27.1-17.3,27.1-36.66,0-28-20.72-41.9-52.83-41.9h-82.2V177.4a20.15,20.15,0,0,0,17.82,17.82A20.15,20.15,0,0,0,845.83,213h84.48c35.06,0,54.19-15.94,54.19-44.17C984.5,150.88,973.57,135.16,953.76,130.38ZM896.38,91.9H916c9.11,0,13.44,3.64,13.44,11.61,0,7.74-4.33,11.16-13.44,11.16H896.38Zm23,80.61h-23V149.74h23c9.1,0,13.43,3.87,13.43,11.61C932.81,169.32,928.48,172.51,919.38,172.51Z"/></svg>